<svg width="300" height="300" viewBox="0 0 300 300" fill="none" xmlns="http://www.w3.org/2000/svg">
<g clip-path="url(#clip0_317_4248)">
<path d="M150 269C216.274 269 270 215.274 270 149C270 82.7258 216.274 29 150 29C83.7258 29 30 82.7258 30 149C30 215.274 83.7258 269 150 269Z" fill="url(#paint0_linear_317_4248)"/>
<g filter="url(#filter0_d_317_4248)">
<rect x="89" y="63.5566" width="124.537" height="155.029" rx="16" fill="url(#paint1_linear_317_4248)"/>
</g>
<rect x="100" y="83.5566" width="50" height="9.8" rx="4.9" fill="black"/>
<rect x="100" y="111.356" width="100" height="9.8" rx="4.9" fill="#D5D5D5"/>
<rect x="100" y="139.157" width="100" height="9.8" rx="4.9" fill="#D5D5D5"/>
<rect x="100" y="166.957" width="100" height="9.8" rx="4.9" fill="#D5D5D5"/>
<rect x="100" y="194.757" width="100" height="9.8" rx="4.9" fill="#D5D5D5"/>
<g filter="url(#filter1_d_317_4248)">
<path d="M288.15 46.4238H228.069C225.27 46.4238 223 48.8123 223 51.7587V81.4778C223 84.4242 225.27 86.8127 228.069 86.8127H288.15C290.949 86.8127 293.219 84.4242 293.219 81.4778V51.7587C293.219 48.8123 290.949 46.4238 288.15 46.4238Z" fill="white"/>
</g>
<path d="M238 73C241.314 73 244 70.3137 244 67C244 63.6863 241.314 61 238 61C234.686 61 232 63.6863 232 67C232 70.3137 234.686 73 238 73Z" fill="#B5B5C3"/>
<rect x="252" y="61" width="32" height="12" rx="6" fill="#D5D5D5"/>
<path fill-rule="evenodd" clip-rule="evenodd" d="M185.109 225.563C197.989 225.563 209.959 221.667 219.905 214.99L260.604 253.841L275.364 236.716L236.091 199.226C243.345 189.018 247.609 176.539 247.609 163.063C247.609 128.546 219.627 100.563 185.109 100.563C150.592 100.563 122.609 128.546 122.609 163.063C122.609 197.581 150.592 225.563 185.109 225.563ZM238.418 163.064C238.418 192.287 214.728 215.977 185.505 215.977C156.282 215.977 132.592 192.287 132.592 163.064C132.592 133.84 156.282 110.15 185.505 110.15C214.728 110.15 238.418 133.84 238.418 163.064Z" fill="#B5B5C3"/>
<g filter="url(#filter2_b_317_4248)">
<path d="M185.5 217C215.6 217 240 192.823 240 163C240 133.177 215.6 109 185.5 109C155.4 109 131 133.177 131 163C131 192.823 155.4 217 185.5 217Z" fill="white" fill-opacity="0.3"/>
</g>
<path d="M194.923 163L208.112 149.862C209.348 148.562 210.025 146.835 209.999 145.047C209.974 143.259 209.248 141.552 207.976 140.287C206.704 139.023 204.986 138.301 203.187 138.276C201.388 138.251 199.65 138.923 198.342 140.151L185.124 153.289L171.935 140.151C171.3 139.484 170.537 138.95 169.691 138.58C168.845 138.211 167.933 138.014 167.009 138.001C166.085 137.988 165.168 138.159 164.312 138.504C163.456 138.85 162.678 139.362 162.024 140.012C161.371 140.661 160.855 141.434 160.508 142.285C160.16 143.136 159.988 144.048 160.001 144.967C160.014 145.885 160.212 146.791 160.584 147.632C160.955 148.473 161.493 149.231 162.165 149.862L175.376 163L162.165 176.138C161.493 176.769 160.955 177.527 160.584 178.368C160.212 179.209 160.014 180.115 160.001 181.033C159.988 181.952 160.16 182.863 160.508 183.715C160.855 184.566 161.371 185.339 162.024 185.988C162.678 186.637 163.456 187.15 164.312 187.496C165.168 187.841 166.085 188.012 167.009 187.999C167.933 187.986 168.845 187.789 169.691 187.42C170.537 187.05 171.3 186.516 171.935 185.849L185.153 172.711L198.372 185.849C199.692 187.004 201.405 187.616 203.164 187.559C204.922 187.503 206.592 186.782 207.834 185.544C209.076 184.305 209.796 182.643 209.848 180.896C209.9 179.148 209.279 177.446 208.112 176.138L194.923 163Z" fill="black"/>
<path d="M260.602 253.843L275.362 236.718L277.585 238.84C279.742 240.899 281.033 243.775 281.175 246.837C281.317 249.898 280.297 252.893 278.341 255.163C276.384 257.433 273.651 258.792 270.742 258.941C267.833 259.091 264.987 258.018 262.83 255.959L260.607 253.836L260.602 253.843Z" fill="#B5B5C3"/>
<path fill-rule="evenodd" clip-rule="evenodd" d="M56.3144 91.1719C56.2956 89.7459 56.1167 88.3076 55.7589 86.8594C54.5042 81.7773 48.9064 78.5146 42.9484 77.7475C36.9927 76.9804 30.7993 78.7261 28.4123 83.1468C27.047 85.6743 26.8587 87.8527 27.4166 89.6893C27.9721 91.5161 29.2903 93.0306 31.0793 94.2108C36.0675 97.4981 44.8034 98.1693 48.7887 96.7949C50.6319 96.1581 52.4327 95.391 54.1864 94.5133C53.1836 100.259 49.4477 105.703 44.4619 110.608C33.6264 121.269 16.8117 129.36 7.65456 132.335C7.16257 132.495 6.88948 133.041 7.04249 133.554C7.19551 134.068 7.71809 134.356 8.21008 134.196C17.5485 131.162 34.6905 122.899 45.7402 112.026C51.4487 106.411 55.5164 100.09 56.2109 93.4437C69.1156 86.2423 79.7134 73.1769 88.774 62.1817C89.1106 61.776 89.0659 61.1589 88.6751 60.8073C88.2844 60.4582 87.6958 60.5024 87.3592 60.9106C78.6681 71.4558 68.5812 84 56.3144 91.1719ZM54.4383 92.2169C54.509 90.6138 54.3582 88.9861 53.951 87.3437C52.8658 82.9452 47.8776 80.3439 42.72 79.6801C39.5585 79.2744 36.3077 79.6088 33.7583 80.7988C32.1552 81.5462 30.8345 82.6305 30.0389 84.1057C28.9937 86.0407 28.7677 87.6954 29.1961 89.0993C29.6245 90.513 30.6887 91.6489 32.0752 92.561C36.6208 95.5582 44.575 96.195 48.2025 94.9435C50.3423 94.2059 52.4186 93.2864 54.4383 92.2169Z" fill="black"/>
<circle cx="285" cy="184" r="6" fill="#E3E3E3"/>
<path fill-rule="evenodd" clip-rule="evenodd" d="M58.3842 225.395C59.455 224.993 60.5818 224.459 61.4507 223.687C62.4827 222.769 62.9024 221.587 63.1843 220.343C63.5461 218.745 63.6907 217.042 64.1295 215.441C64.2919 214.847 64.6046 214.622 64.7387 214.522C65.0778 214.27 65.4206 214.203 65.743 214.228C66.1252 214.257 66.6501 214.409 66.9953 215.084C67.0446 215.18 67.1086 215.327 67.1516 215.529C67.183 215.676 67.2033 216.138 67.2366 216.328C67.3196 216.797 67.3892 217.266 67.4544 217.738C67.6716 219.307 67.7966 220.64 68.4827 222.081C69.4138 224.038 70.3467 225.236 71.612 225.766C72.8354 226.279 74.2981 226.183 76.167 225.781C76.3449 225.735 76.5209 225.696 76.695 225.665C77.519 225.513 78.3067 226.082 78.4686 226.946C78.6304 227.81 78.1067 228.651 77.2901 228.841C77.1197 228.88 76.9516 228.918 76.7855 228.952C74.26 229.61 71.3362 231.958 69.6372 234.015C69.1135 234.649 68.3467 236.421 67.5646 237.552C66.9873 238.386 66.3387 238.936 65.7941 239.13C65.4292 239.261 65.1215 239.241 64.8673 239.175C64.4981 239.079 64.1917 238.869 63.9566 238.534C63.8286 238.35 63.7098 238.105 63.6532 237.792C63.6261 237.641 63.623 237.257 63.6236 237.084C63.4643 236.507 63.2692 235.943 63.127 235.361C62.788 233.972 62.1227 233.092 61.3326 231.93C60.5935 230.843 59.7997 230.16 58.636 229.615C58.4846 229.576 57.263 229.261 56.8317 229.08C56.2015 228.815 55.9012 228.372 55.7923 228.133C55.607 227.727 55.588 227.373 55.6249 227.078C55.6797 226.642 55.8655 226.269 56.1953 225.968C56.3997 225.781 56.7049 225.599 57.1135 225.51C57.4292 225.441 58.2667 225.4 58.3842 225.395ZM65.5504 223.13C65.607 223.263 65.6673 223.397 65.7313 223.531C67.095 226.398 68.6199 227.998 70.4735 228.775L70.5356 228.8C69.2956 229.769 68.1732 230.852 67.3153 231.89C66.9621 232.317 66.4944 233.205 65.9892 234.116C65.5301 232.545 64.7793 231.435 63.8353 230.046C63.1141 228.986 62.3584 228.188 61.4298 227.538C62.1504 227.148 62.8378 226.692 63.4366 226.16C64.4335 225.273 65.0926 224.246 65.5504 223.13Z" fill="#B5B5C3"/>
</g>
<defs>
<filter id="filter0_d_317_4248" x="59" y="53.5566" width="184.537" height="215.029" filterUnits="userSpaceOnUse" color-interpolation-filters="sRGB">
<feFlood flood-opacity="0" result="BackgroundImageFix"/>
<feColorMatrix in="SourceAlpha" type="matrix" values="0 0 0 0 0 0 0 0 0 0 0 0 0 0 0 0 0 0 127 0" result="hardAlpha"/>
<feOffset dy="20"/>
<feGaussianBlur stdDeviation="15"/>
<feComposite in2="hardAlpha" operator="out"/>
<feColorMatrix type="matrix" values="0 0 0 0 0.570833 0 0 0 0 0.570833 0 0 0 0 0.570833 0 0 0 0.19 0"/>
<feBlend mode="normal" in2="BackgroundImageFix" result="effect1_dropShadow_317_4248"/>
<feBlend mode="normal" in="SourceGraphic" in2="effect1_dropShadow_317_4248" result="shape"/>
</filter>
<filter id="filter1_d_317_4248" x="216" y="37.4238" width="96.2188" height="66.3887" filterUnits="userSpaceOnUse" color-interpolation-filters="sRGB">
<feFlood flood-opacity="0" result="BackgroundImageFix"/>
<feColorMatrix in="SourceAlpha" type="matrix" values="0 0 0 0 0 0 0 0 0 0 0 0 0 0 0 0 0 0 127 0" result="hardAlpha"/>
<feOffset dx="6" dy="4"/>
<feGaussianBlur stdDeviation="6.5"/>
<feComposite in2="hardAlpha" operator="out"/>
<feColorMatrix type="matrix" values="0 0 0 0 0.104618 0 0 0 0 0.465612 0 0 0 0 0.545833 0 0 0 0.09 0"/>
<feBlend mode="normal" in2="BackgroundImageFix" result="effect1_dropShadow_317_4248"/>
<feBlend mode="normal" in="SourceGraphic" in2="effect1_dropShadow_317_4248" result="shape"/>
</filter>
<filter id="filter2_b_317_4248" x="123" y="101" width="125" height="124" filterUnits="userSpaceOnUse" color-interpolation-filters="sRGB">
<feFlood flood-opacity="0" result="BackgroundImageFix"/>
<feGaussianBlur in="BackgroundImageFix" stdDeviation="4"/>
<feComposite in2="SourceAlpha" operator="in" result="effect1_backgroundBlur_317_4248"/>
<feBlend mode="normal" in="SourceGraphic" in2="effect1_backgroundBlur_317_4248" result="shape"/>
</filter>
<linearGradient id="paint0_linear_317_4248" x1="149.075" y1="-10.0749" x2="151.533" y2="411.347" gradientUnits="userSpaceOnUse">
<stop stop-color="#F2F2F2"/>
<stop offset="1" stop-color="#EFEFEF"/>
</linearGradient>
<linearGradient id="paint1_linear_317_4248" x1="151.269" y1="63.5566" x2="151.269" y2="218.585" gradientUnits="userSpaceOnUse">
<stop stop-color="white"/>
<stop offset="0.71875" stop-color="#FAFAFA"/>
</linearGradient>
<clipPath id="clip0_317_4248">
<rect width="300" height="300" fill="white"/>
</clipPath>
</defs>
</svg>
