<svg width="24" height="24" viewBox="0 0 24 24" fill="none" xmlns="http://www.w3.org/2000/svg">
<path d="M19.96 8.95842C19.29 8.21842 18.28 7.78841 16.88 7.63841V6.87841C16.88 5.50841 16.3 4.18841 15.28 3.26841C14.7767 2.80696 14.1815 2.45707 13.5336 2.24165C12.8856 2.02624 12.1994 1.95016 11.52 2.01841C9.13 2.24841 7.12001 4.55841 7.12001 7.05841V7.63841C5.72001 7.78841 4.71001 8.21842 4.04001 8.95842C3.07001 10.0384 3.10001 11.4784 3.21001 12.4784L3.91001 18.0484C4.12001 19.9984 4.91001 21.9984 9.21001 21.9984H14.79C19.09 21.9984 19.88 19.9984 20.09 18.0584L20.79 12.4684C20.9 11.4784 20.92 10.0384 19.96 8.95842ZM11.66 3.40841C12.1446 3.35974 12.6341 3.41327 13.0967 3.56557C13.5594 3.71786 13.9849 3.96552 14.3459 4.29255C14.7068 4.61958 14.9952 5.0187 15.1923 5.46412C15.3893 5.90954 15.4908 6.39135 15.49 6.87841V7.57841H8.51001V7.05841C8.51001 5.27841 9.98 3.56841 11.66 3.40841ZM8.42001 13.1484H8.41001C7.86 13.1484 7.41001 12.6984 7.41001 12.1484C7.41001 11.5984 7.86 11.1484 8.41001 11.1484C8.97001 11.1484 9.42001 11.5984 9.42001 12.1484C9.42001 12.6984 8.97001 13.1484 8.42001 13.1484ZM15.42 13.1484H15.41C14.86 13.1484 14.41 12.6984 14.41 12.1484C14.41 11.5984 14.86 11.1484 15.41 11.1484C15.97 11.1484 16.42 11.5984 16.42 12.1484C16.42 12.6984 15.97 13.1484 15.42 13.1484Z" fill="#929AA0"/>
</svg>
