<svg width="22" height="22" viewBox="0 0 22 22" fill="none" xmlns="http://www.w3.org/2000/svg">
<path d="M20.1392 16.8024C20.1392 17.1324 20.0658 17.4716 19.91 17.8016C19.7542 18.1316 19.5525 18.4433 19.2867 18.7366C18.8375 19.2316 18.3425 19.5891 17.7833 19.8183C17.2333 20.0474 16.6375 20.1666 15.9958 20.1666C15.0608 20.1666 14.0617 19.9466 13.0075 19.4974C11.9533 19.0483 10.8992 18.4433 9.85416 17.6824C8.78909 16.9033 7.78405 16.0454 6.8475 15.1158C5.92053 14.1826 5.06559 13.1806 4.28999 12.1183C3.53833 11.0733 2.93333 10.0283 2.49333 8.99242C2.05333 7.94742 1.83333 6.94825 1.83333 5.99492C1.83333 5.37159 1.94333 4.77575 2.16333 4.22575C2.38333 3.66659 2.73166 3.15325 3.2175 2.69492C3.80416 2.11742 4.44583 1.83325 5.12416 1.83325C5.38083 1.83325 5.6375 1.88825 5.86666 1.99825C6.105 2.10825 6.31583 2.27325 6.48083 2.51159L8.6075 5.50909C8.7725 5.73825 8.89166 5.94909 8.97416 6.15075C9.05666 6.34325 9.1025 6.53575 9.1025 6.70992C9.1025 6.92992 9.03833 7.14992 8.91 7.36075C8.79083 7.57158 8.61666 7.79158 8.39666 8.01158L7.7 8.73575C7.59916 8.83658 7.55333 8.95575 7.55333 9.10242C7.55333 9.17575 7.5625 9.23992 7.58083 9.31325C7.60833 9.38658 7.63583 9.44158 7.65416 9.49658C7.81916 9.79908 8.10333 10.1933 8.50666 10.6699C8.91916 11.1466 9.35916 11.6324 9.83583 12.1183C10.3308 12.6041 10.8075 13.0533 11.2933 13.4658C11.77 13.8691 12.1642 14.1441 12.4758 14.3091C12.5217 14.3274 12.5767 14.3549 12.6408 14.3824C12.7142 14.4099 12.7875 14.4191 12.87 14.4191C13.0258 14.4191 13.145 14.3641 13.2458 14.2633L13.9425 13.5758C14.1717 13.3466 14.3917 13.1724 14.6025 13.0624C14.8133 12.9341 15.0242 12.8699 15.2533 12.8699C15.4275 12.8699 15.6108 12.9066 15.8125 12.9891C16.0142 13.0716 16.225 13.1908 16.4542 13.3466L19.4883 15.5008C19.7267 15.6658 19.8917 15.8583 19.9925 16.0874C20.0842 16.3166 20.1392 16.5458 20.1392 16.8024Z" stroke="#929AA0" stroke-width="1.5" stroke-miterlimit="10"/>
</svg>
