<svg width="20" height="20" viewBox="0 0 20 20" fill="none" xmlns="http://www.w3.org/2000/svg">
<path d="M16 4C15.39 4 14.83 3.65 14.55 3.11L13.83 1.66C13.37 0.75 12.17 0 11.15 0H8.86C7.83 0 6.63 0.75 6.17 1.66L5.45 3.11C5.17 3.65 4.61 4 4 4C1.83 4 0.11 5.83 0.25 7.99L0.77 16.25C0.89 18.31 2 20 4.76 20H15.24C18 20 19.1 18.31 19.23 16.25L19.75 7.99C19.7824 7.47783 19.7094 6.96446 19.5356 6.48161C19.3617 5.99876 19.0907 5.5567 18.7392 5.18275C18.3878 4.80879 17.9634 4.51089 17.4922 4.30746C17.0211 4.10403 16.5132 3.99939 16 4ZM8.5 5.25H11.5C11.91 5.25 12.25 5.59 12.25 6C12.25 6.41 11.91 6.75 11.5 6.75H8.5C8.09 6.75 7.75 6.41 7.75 6C7.75 5.59 8.09 5.25 8.5 5.25ZM10 16.12C8.14 16.12 6.62 14.61 6.62 12.74C6.62 10.87 8.13 9.36 10 9.36C11.87 9.36 13.38 10.87 13.38 12.74C13.38 14.61 11.86 16.12 10 16.12Z" fill="#929AA0"/>
</svg>
