<svg width="22" height="22" viewBox="0 0 22 22" fill="none" xmlns="http://www.w3.org/2000/svg">
<path d="M14.2817 11C14.2817 12.815 12.815 14.2817 11 14.2817C9.185 14.2817 7.71833 12.815 7.71833 11C7.71833 9.18499 9.185 7.71832 11 7.71832C12.815 7.71832 14.2817 9.18499 14.2817 11Z" stroke="#929AA0" stroke-width="1.5" stroke-linecap="round" stroke-linejoin="round"/>
<path d="M11 18.5808C14.2358 18.5808 17.2517 16.6741 19.3508 13.3741C20.1758 12.0816 20.1758 9.90914 19.3508 8.61664C17.2517 5.31664 14.2358 3.40997 11 3.40997C7.76417 3.40997 4.74834 5.31664 2.64917 8.61664C1.82417 9.90914 1.82417 12.0816 2.64917 13.3741C4.74834 16.6741 7.76417 18.5808 11 18.5808Z" stroke="#929AA0" stroke-width="1.5" stroke-linecap="round" stroke-linejoin="round"/>
</svg>
