<svg width="22" height="22" viewBox="0 0 22 22" fill="none" xmlns="http://www.w3.org/2000/svg">
<path d="M13.3192 8.68085L8.68085 13.3192C8.06576 12.7041 7.72021 11.8699 7.72021 11C7.72021 10.5693 7.80505 10.1428 7.96987 9.74489C8.1347 9.34696 8.37629 8.9854 8.68085 8.68085C8.9854 8.37629 9.34696 8.1347 9.74489 7.96987C10.1428 7.80505 10.5693 7.72021 11 7.72021C11.8699 7.72021 12.7041 8.06576 13.3192 8.68085Z" stroke="#929AA0" stroke-width="1.5" stroke-linecap="round" stroke-linejoin="round"/>
<path d="M16.335 5.28919C14.7308 4.07919 12.8975 3.41919 11 3.41919C7.76415 3.41919 4.74831 5.32586 2.64915 8.62586C1.82415 9.91836 1.82415 12.0909 2.64915 13.3834C3.37331 14.52 4.21665 15.5009 5.13331 16.2892M7.71831 17.9025C8.76331 18.3425 9.87248 18.5809 11 18.5809C14.2358 18.5809 17.2516 16.6742 19.3508 13.3742C20.1758 12.0817 20.1758 9.90919 19.3508 8.61669C19.0483 8.14002 18.7183 7.69086 18.3791 7.26919" stroke="#929AA0" stroke-width="1.5" stroke-linecap="round" stroke-linejoin="round"/>
<path d="M14.2175 11.6416C14.0933 12.2811 13.7809 12.8688 13.3203 13.3294C12.8597 13.79 12.2719 14.1025 11.6325 14.2266M8.68081 13.3191L1.83331 20.1666M20.1666 1.83331L13.3191 8.68081" stroke="#929AA0" stroke-width="1.5" stroke-linecap="round" stroke-linejoin="round"/>
</svg>
