<svg width="25" height="24" viewBox="0 0 25 24" fill="none" xmlns="http://www.w3.org/2000/svg">
<path d="M8.04594 13.6688L7.489 15.7479L5.45341 15.7909C4.84506 14.6626 4.5 13.3716 4.5 11.9998C4.5 10.6732 4.82263 9.4222 5.3945 8.32068H5.39494L7.20719 8.65293L8.00106 10.4543C7.83491 10.9387 7.74435 11.4587 7.74435 11.9998C7.74441 12.587 7.85078 13.1497 8.04594 13.6688Z" fill="#FBBB00"/>
<path d="M20.3603 10.5055C20.4521 10.9894 20.5 11.4892 20.5 12C20.5 12.5727 20.4398 13.1314 20.3251 13.6703C19.9357 15.5041 18.9181 17.1054 17.5084 18.2386L17.508 18.2382L15.2253 18.1217L14.9023 16.105C15.8377 15.5565 16.5687 14.698 16.9537 13.6703H12.6759V10.5055H17.0161H20.3603Z" fill="#518EF8"/>
<path d="M17.5079 18.2382L17.5083 18.2387C16.1373 19.3406 14.3958 20 12.5 20C9.45337 20 6.80459 18.2972 5.45337 15.7912L8.0459 13.6691C8.7215 15.4721 10.4608 16.7556 12.5 16.7556C13.3764 16.7556 14.1976 16.5187 14.9022 16.1051L17.5079 18.2382Z" fill="#28B446"/>
<path d="M17.6064 5.84174L15.0148 7.96347C14.2855 7.50766 13.4235 7.24435 12.5 7.24435C10.4148 7.24435 8.64288 8.58675 8.00113 10.4544L5.39497 8.32084H5.39453C6.72597 5.75383 9.40816 4 12.5 4C14.4411 4 16.2209 4.69143 17.6064 5.84174Z" fill="#F14336"/>
</svg>
