<svg width="17" height="18" viewBox="0 0 17 18" fill="none" xmlns="http://www.w3.org/2000/svg">
<path d="M14.6065 6.48558C13.8628 3.21308 11.0082 1.73975 8.50071 1.73975H8.49362C5.99321 1.73975 3.13154 3.206 2.38779 6.4785C1.55904 10.1335 3.79737 13.2289 5.82321 15.1768C6.54126 15.8718 7.50139 16.2605 8.50071 16.2606C9.46404 16.2606 10.4274 15.8993 11.1711 15.1768C13.197 13.2289 15.4353 10.1406 14.6065 6.48558ZM8.50071 10.0343C8.2077 10.0343 7.91755 9.97662 7.64685 9.86449C7.37614 9.75236 7.13017 9.588 6.92298 9.38081C6.71579 9.17362 6.55143 8.92765 6.4393 8.65694C6.32717 8.38623 6.26946 8.09609 6.26946 7.80308C6.26946 7.51007 6.32717 7.21993 6.4393 6.94922C6.55143 6.67851 6.71579 6.43254 6.92298 6.22535C7.13017 6.01816 7.37614 5.8538 7.64685 5.74167C7.91755 5.62954 8.2077 5.57183 8.50071 5.57183C9.09247 5.57183 9.66 5.80691 10.0784 6.22535C10.4969 6.64379 10.732 7.21132 10.732 7.80308C10.732 8.39485 10.4969 8.96237 10.0784 9.38081C9.66 9.79925 9.09247 10.0343 8.50071 10.0343Z" fill="#929AA0"/>
</svg>
