<svg width="24" height="24" viewBox="0 0 24 24" fill="none" xmlns="http://www.w3.org/2000/svg">
<path d="M16.8 2H14.2C11 2 9 4 9 7.2V11.25H15.25C15.66 11.25 16 11.59 16 12C16 12.41 15.66 12.75 15.25 12.75H9V16.8C9 20 11 22 14.2 22H16.79C19.99 22 21.99 20 21.99 16.8V7.2C22 4 20 2 16.8 2Z" fill="#EB2050"/>
<path d="M4.56099 11.25L6.63099 9.18005C6.78099 9.03005 6.85099 8.84004 6.85099 8.65004C6.85099 8.46004 6.78099 8.26005 6.63099 8.12005C6.48986 7.98056 6.29942 7.90234 6.10099 7.90234C5.90256 7.90234 5.71213 7.98056 5.57099 8.12005L2.22099 11.47C1.93099 11.76 1.93099 12.24 2.22099 12.53L5.57099 15.88C5.86099 16.17 6.34099 16.17 6.63099 15.88C6.92099 15.59 6.92099 15.11 6.63099 14.82L4.56099 12.75H9.00099V11.25H4.56099Z" fill="#EB2050"/>
</svg>
