<svg width="21" height="21" viewBox="0 0 21 21" fill="none" xmlns="http://www.w3.org/2000/svg">
<path d="M15.4834 9.49167V12.825C15.4834 13.0417 15.475 13.25 15.45 13.45C15.2584 15.7 13.9334 16.8167 11.4917 16.8167H11.1584C10.95 16.8167 10.75 16.9167 10.625 17.0833L9.62502 18.4167C9.18335 19.0083 8.46669 19.0083 8.02502 18.4167L7.02502 17.0833C6.95832 17.0057 6.87679 16.9421 6.78521 16.8963C6.69364 16.8505 6.59385 16.8234 6.49169 16.8167H6.15835C3.50002 16.8167 2.16669 16.1583 2.16669 12.825V9.49167C2.16669 7.05 3.29169 5.725 5.53335 5.53333C5.73335 5.50833 5.94169 5.5 6.15835 5.5H11.4917C14.15 5.5 15.4834 6.83333 15.4834 9.49167Z" stroke="black" stroke-width="1.5" stroke-miterlimit="10" stroke-linecap="round" stroke-linejoin="round"/>
<path d="M18.8167 6.15817V9.4915C18.8167 11.9415 17.6917 13.2582 15.45 13.4498C15.475 13.2498 15.4833 13.0415 15.4833 12.8248V9.4915C15.4833 6.83317 14.15 5.49984 11.4917 5.49984H6.15833C5.94166 5.49984 5.73333 5.50817 5.53333 5.53317C5.72499 3.2915 7.04999 2.1665 9.49166 2.1665H14.825C17.4833 2.1665 18.8167 3.49984 18.8167 6.15817Z" stroke="black" stroke-width="1.5" stroke-miterlimit="10" stroke-linecap="round" stroke-linejoin="round"/>
<path d="M11.7458 11.5415H11.7541M8.82914 11.5415H8.83748M5.91248 11.5415H5.92081" stroke="black" stroke-width="2" stroke-linecap="round" stroke-linejoin="round"/>
</svg>
