<svg width="17" height="21" viewBox="0 0 17 21" fill="none" xmlns="http://www.w3.org/2000/svg">
<path d="M10.3 4.65H6.69999M15.7 6V15C15.7 18.6 14.8 19.5 11.2 19.5H5.79999C2.19999 19.5 1.29999 18.6 1.29999 15V6C1.29999 2.4 2.19999 1.5 5.79999 1.5H11.2C14.8 1.5 15.7 2.4 15.7 6Z" stroke="black" stroke-width="1.5" stroke-linecap="round" stroke-linejoin="round"/>
<path d="M8.49998 16.8896C8.86996 16.8896 9.22478 16.7426 9.4864 16.481C9.74801 16.2194 9.89498 15.8646 9.89498 15.4946C9.89498 15.1246 9.74801 14.7698 9.4864 14.5082C9.22478 14.2466 8.86996 14.0996 8.49998 14.0996C8.13 14.0996 7.77518 14.2466 7.51357 14.5082C7.25195 14.7698 7.10498 15.1246 7.10498 15.4946C7.10498 15.8646 7.25195 16.2194 7.51357 16.481C7.77518 16.7426 8.13 16.8896 8.49998 16.8896Z" stroke="black" stroke-width="1.5" stroke-linecap="round" stroke-linejoin="round"/>
</svg>
