<svg width="24" height="24" viewBox="0 0 24 24" fill="none" xmlns="http://www.w3.org/2000/svg">
<path d="M18.54 4.11984L13.04 2.05984C12.47 1.84984 11.54 1.84984 10.97 2.05984L5.47 4.11984C4.41 4.51984 3.55 5.75984 3.55 6.88984V14.9898C3.55 15.7998 4.08 16.8698 4.73 17.3498L10.23 21.4598C11.2 22.1898 12.79 22.1898 13.76 21.4598L19.26 17.3498C19.91 16.8598 20.44 15.7998 20.44 14.9898V6.88984C20.45 5.75984 19.59 4.51984 18.54 4.11984ZM15.48 9.71984L11.18 14.0198C11.03 14.1698 10.84 14.2398 10.65 14.2398C10.46 14.2398 10.27 14.1698 10.12 14.0198L8.52 12.3998C8.38052 12.2587 8.3023 12.0683 8.3023 11.8698C8.3023 11.6714 8.38052 11.481 8.52 11.3398C8.81 11.0498 9.29 11.0498 9.58 11.3398L10.66 12.4198L14.43 8.64984C14.72 8.35984 15.2 8.35984 15.49 8.64984C15.78 8.93984 15.78 9.42984 15.48 9.71984Z" fill="#929AA0"/>
</svg>
