<svg width="25" height="24" viewBox="0 0 25 24" fill="none" xmlns="http://www.w3.org/2000/svg">
<path d="M18.64 21.6202C17.76 21.8802 16.72 22.0002 15.5 22.0002H9.49999C8.27999 22.0002 7.23999 21.8802 6.35999 21.6202C6.57999 19.0202 9.24999 16.9702 12.5 16.9702C15.75 16.9702 18.42 19.0202 18.64 21.6202Z" stroke="#C5CEE0" stroke-width="1.5" stroke-linecap="round" stroke-linejoin="round"/>
<path d="M15.5 2H9.5C4.5 2 2.5 4 2.5 9V15C2.5 18.78 3.64 20.85 6.36 21.62C6.58 19.02 9.25 16.97 12.5 16.97C15.75 16.97 18.42 19.02 18.64 21.62C21.36 20.85 22.5 18.78 22.5 15V9C22.5 4 20.5 2 15.5 2ZM12.5 14.17C10.52 14.17 8.92 12.56 8.92 10.58C8.92 8.6 10.52 7 12.5 7C14.48 7 16.08 8.6 16.08 10.58C16.08 12.56 14.48 14.17 12.5 14.17Z" stroke="#C5CEE0" stroke-width="1.5" stroke-linecap="round" stroke-linejoin="round"/>
<path d="M16.08 10.58C16.08 12.56 14.48 14.17 12.5 14.17C10.52 14.17 8.91998 12.56 8.91998 10.58C8.91998 8.6 10.52 7 12.5 7C14.48 7 16.08 8.6 16.08 10.58Z" stroke="#C5CEE0" stroke-width="1.5" stroke-linecap="round" stroke-linejoin="round"/>
</svg>
