<svg width="24" height="24" viewBox="0 0 24 24" fill="none" xmlns="http://www.w3.org/2000/svg">
<path d="M22.36 8.27L22.07 5.5C21.65 2.48 20.28 1.25 17.35 1.25H6.58999C3.64999 1.25 2.28999 2.48 1.85999 5.53L1.58999 8.28C1.48999 9.35 1.77999 10.39 2.40999 11.2C3.16999 12.19 4.33999 12.75 5.63999 12.75C6.89999 12.75 8.10999 12.12 8.86999 11.11C9.21701 11.6193 9.68408 12.0353 10.23 12.3213C10.7758 12.6073 11.3837 12.7546 12 12.75C13.29 12.75 14.42 12.15 15.11 11.15C15.88 12.14 17.07 12.75 18.31 12.75C19.64 12.75 20.84 12.16 21.59 11.12C22.19 10.32 22.46 9.31 22.36 8.27ZM11.35 16.66C10.7361 16.7256 10.1683 17.0164 9.75637 17.4764C9.34447 17.9363 9.11773 18.5326 9.11999 19.15V21.89C9.11999 22.16 9.33999 22.38 9.60999 22.38H14.38C14.65 22.38 14.87 22.16 14.87 21.89V19.5C14.88 17.41 13.65 16.42 11.35 16.66Z" fill="#EB2050"/>
<path d="M21.37 14.3981V17.3781C21.37 20.1381 19.13 22.3781 16.37 22.3781C16.24 22.3781 16.1154 22.3265 16.0235 22.2346C15.9316 22.1427 15.88 22.0181 15.88 21.8881V19.4981C15.88 18.2181 15.49 17.2181 14.73 16.5381C14.06 15.9281 13.15 15.6281 12.02 15.6281C11.77 15.6281 11.52 15.6381 11.25 15.6681C10.3894 15.7562 9.59237 16.1613 9.01386 16.8045C8.43535 17.4477 8.11675 18.283 8.12 19.1481V21.8881C8.12 22.1581 7.9 22.3781 7.63 22.3781C4.87 22.3781 2.63 20.1381 2.63 17.3781V14.4181C2.63007 14.2576 2.66879 14.0994 2.74289 13.957C2.81699 13.8146 2.92429 13.6921 3.05572 13.5999C3.18715 13.5077 3.33885 13.4485 3.49799 13.4273C3.65712 13.4061 3.81903 13.4235 3.97 13.4781C4.24 13.5681 4.51 13.6381 4.79 13.6781C4.91 13.6981 5.04 13.7181 5.16 13.7181C5.32 13.7381 5.48 13.7481 5.64 13.7481C6.8 13.7481 7.94 13.3181 8.84 12.5781C9.70001 13.3181 10.82 13.7481 12 13.7481C13.19 13.7481 14.29 13.3381 15.15 12.5981C16.05 13.3281 17.17 13.7481 18.31 13.7481C18.49 13.7481 18.67 13.7381 18.84 13.7181C19.2528 13.6838 19.6595 13.5964 20.05 13.4581C20.1999 13.4068 20.3598 13.3919 20.5165 13.4147C20.6733 13.4375 20.8223 13.4973 20.9513 13.5892C21.0804 13.6811 21.1856 13.8024 21.2584 13.9431C21.3312 14.0837 21.3695 14.2397 21.37 14.3981Z" fill="#EB2050"/>
</svg>
