<svg width="24" height="24" viewBox="0 0 24 24" fill="none" xmlns="http://www.w3.org/2000/svg">
<path d="M15.1336 22.4992H9.7336C4.7936 22.4992 2.6936 20.3892 2.6936 15.4592V10.9692C2.6936 10.5592 3.0336 10.2192 3.4436 10.2192C3.8536 10.2192 4.1936 10.5592 4.1936 10.9692V15.4592C4.1936 19.5492 5.6436 20.9992 9.7336 20.9992H15.1236C19.2136 20.9992 20.6636 19.5492 20.6636 15.4592V10.9692C20.6636 10.5592 21.0036 10.2192 21.4136 10.2192C21.8236 10.2192 22.1636 10.5592 22.1636 10.9692V15.4592C22.1736 20.3892 20.0636 22.4992 15.1336 22.4992Z" fill="#C5CEE0"/>
<path d="M12.4326 12.5C11.3326 12.5 10.3326 12.07 9.62262 11.28C8.91262 10.49 8.58262 9.46 8.69262 8.36L9.36262 1.68C9.40262 1.3 9.72262 1 10.1126 1H14.7826C15.1726 1 15.4926 1.29 15.5326 1.68L16.2026 8.36C16.3126 9.46 15.9826 10.49 15.2726 11.28C14.5326 12.07 13.5326 12.5 12.4326 12.5ZM10.7826 2.5L10.1826 8.51C10.1126 9.18 10.3126 9.81 10.7326 10.27C11.5826 11.21 13.2826 11.21 14.1326 10.27C14.5526 9.8 14.7526 9.17 14.6826 8.51L14.0826 2.5H10.7826Z" fill="#C5CEE0"/>
<path d="M18.7436 12.5C16.7136 12.5 14.9036 10.86 14.6936 8.84L13.9936 1.83C13.9736 1.62 14.0436 1.41 14.1836 1.25C14.3236 1.09 14.5236 1 14.7436 1H17.7936C20.7336 1 22.1036 2.23 22.5136 5.25L22.7936 8.03C22.9136 9.21 22.5536 10.33 21.7836 11.18C21.0136 12.03 19.9336 12.5 18.7436 12.5ZM15.5736 2.5L16.1936 8.69C16.3236 9.94 17.4836 11 18.7436 11C19.5036 11 20.1836 10.71 20.6736 10.18C21.1536 9.65 21.3736 8.94 21.3036 8.18L21.0236 5.43C20.7136 3.17 19.9836 2.5 17.7936 2.5H15.5736ZM6.07264 12.5C4.88264 12.5 3.80264 12.03 3.03264 11.18C2.26264 10.33 1.90264 9.21 2.02264 8.03L2.29264 5.28C2.71264 2.23 4.08264 1 7.02264 1H10.0726C10.2826 1 10.4826 1.09 10.6326 1.25C10.7826 1.41 10.8426 1.62 10.8226 1.83L10.1226 8.84C9.91264 10.86 8.10264 12.5 6.07264 12.5ZM7.02264 2.5C4.83264 2.5 4.10264 3.16 3.78264 5.45L3.51264 8.18C3.43264 8.94 3.66264 9.65 4.14264 10.18C4.62264 10.71 5.30264 11 6.07264 11C7.33264 11 8.50264 9.94 8.62264 8.69L9.24264 2.5H7.02264ZM14.9336 22.5H9.93364C9.52364 22.5 9.18364 22.16 9.18364 21.75V19.25C9.18364 17.15 10.3336 16 12.4336 16C14.5336 16 15.6836 17.15 15.6836 19.25V21.75C15.6836 22.16 15.3436 22.5 14.9336 22.5ZM10.6836 21H14.1836V19.25C14.1836 17.99 13.6936 17.5 12.4336 17.5C11.1736 17.5 10.6836 17.99 10.6836 19.25V21Z" fill="#C5CEE0"/>
</svg>
