<svg width="17" height="17" viewBox="0 0 17 17" fill="none" xmlns="http://www.w3.org/2000/svg">
<path d="M9.8438 2.05476L11.275 4.87079C11.4711 5.25731 11.9839 5.6359 12.4142 5.69968L14.9744 6.11272C16.6138 6.37362 16.9976 7.55695 15.8344 8.74175L13.8529 10.7486C13.5221 11.0849 13.3335 11.742 13.4457 12.2015L14.0293 14.6659C14.4881 16.6116 13.4597 17.3755 11.7345 16.3675L9.32453 14.959C8.88564 14.7016 8.17386 14.712 7.74412 14.9688L5.35309 16.4006C3.6415 17.4239 2.60127 16.6745 3.03707 14.7251L3.59412 12.2581C3.69813 11.797 3.51024 11.1419 3.17389 10.811L1.16708 8.82957C-0.010365 7.66239 0.358784 6.47511 1.99199 6.19189L4.54206 5.75149C4.97255 5.6736 5.48135 5.29924 5.66911 4.90683L7.06681 2.0684C7.81875 0.536019 9.07121 0.53074 9.8438 2.05476Z" fill="#FCA518"/>
</svg>
