<svg width="19" height="18" viewBox="0 0 19 18" fill="none" xmlns="http://www.w3.org/2000/svg">
<path opacity="0.4" d="M13.1891 1.5H10.0391C7.45158 1.5 6.40158 2.5275 6.37158 5.0625H8.68908C11.8391 5.0625 13.3016 6.525 13.3016 9.675V11.9925C15.8366 11.9625 16.8641 10.9125 16.8641 8.325V5.175C16.8641 2.55 15.8141 1.5 13.1891 1.5Z" fill="#00B6BB"/>
<path d="M8.68926 6H5.53926C2.91426 6 1.86426 7.05 1.86426 9.675V12.825C1.86426 15.45 2.91426 16.5 5.53926 16.5H8.68926C11.3143 16.5 12.3643 15.45 12.3643 12.825V9.675C12.3643 7.05 11.3143 6 8.68926 6ZM9.58176 10.2375L6.79926 13.02C6.74923 13.0704 6.68962 13.1104 6.62393 13.1374C6.55824 13.1645 6.4878 13.1781 6.41676 13.1775C6.34572 13.1781 6.27528 13.1645 6.20959 13.1374C6.1439 13.1104 6.08429 13.0704 6.03426 13.02L4.63926 11.625C4.58932 11.5754 4.5497 11.5164 4.52266 11.4514C4.49562 11.3864 4.48169 11.3167 4.48169 11.2463C4.48169 11.1758 4.49562 11.1061 4.52266 11.0411C4.5497 10.9761 4.58932 10.9171 4.63926 10.8675C4.84926 10.6575 5.18676 10.6575 5.39676 10.8675L6.40926 11.88L8.81676 9.4725C9.02676 9.2625 9.36426 9.2625 9.57426 9.4725C9.78426 9.6825 9.79176 10.0275 9.58176 10.2375Z" fill="#00B6BB"/>
</svg>
