<svg width="24" height="24" viewBox="0 0 24 24" fill="none" xmlns="http://www.w3.org/2000/svg">
<path d="M20.97 16.08C20.73 18.75 18.8 20.5 16 20.5H7C4.24 20.5 2 18.26 2 15.5V8.5C2 5.78 3.64 3.88 6.19 3.56C6.45 3.52 6.72 3.5 7 3.5H16C16.26 3.5 16.51 3.51 16.75 3.55C19.14 3.83 20.76 5.5 20.97 7.92C20.9756 7.98848 20.9668 8.05738 20.9441 8.12222C20.9213 8.18707 20.8852 8.24641 20.8381 8.29639C20.7909 8.34637 20.7338 8.38587 20.6704 8.41234C20.607 8.4388 20.5387 8.45163 20.47 8.45H18.92C17.96 8.45 17.07 8.82 16.43 9.48C15.67 10.22 15.29 11.26 15.38 12.3C15.54 14.12 17.14 15.55 19.04 15.55H20.47C20.76 15.55 21 15.79 20.97 16.08Z" fill="#929AA0"/>
<path d="M22 10.9702V13.0302C22 13.5802 21.56 14.0302 21 14.0502H19.04C17.96 14.0502 16.97 13.2602 16.88 12.1802C16.82 11.5502 17.06 10.9602 17.48 10.5502C17.85 10.1702 18.36 9.9502 18.92 9.9502H21C21.56 9.9702 22 10.4202 22 10.9702Z" fill="#929AA0"/>
</svg>
